<svg width="126" height="22" viewBox="0 0 126 22" fill="none" xmlns="http://www.w3.org/2000/svg">
<path d="M10.0489 2.92705C10.3483 2.00574 11.6517 2.00574 11.9511 2.92705L13.2451 6.90983C13.379 7.32185 13.763 7.60081 14.1962 7.60081H18.3839C19.3527 7.60081 19.7554 8.84043 18.9717 9.40983L15.5838 11.8713C15.2333 12.126 15.0866 12.5773 15.2205 12.9894L16.5146 16.9721C16.8139 17.8934 15.7595 18.6596 14.9757 18.0902L11.5878 15.6287C11.2373 15.374 10.7627 15.374 10.4122 15.6287L7.02426 18.0902C6.24054 18.6596 5.18607 17.8934 5.48542 16.9721L6.7795 12.9894C6.91338 12.5773 6.76672 12.126 6.41623 11.8713L3.02827 9.40983C2.24456 8.84043 2.64734 7.60081 3.61606 7.60081H7.8038C8.23703 7.60081 8.62099 7.32185 8.75486 6.90983L10.0489 2.92705Z" fill="#F7C531"/>
<path d="M36.0489 2.92705C36.3483 2.00574 37.6517 2.00574 37.9511 2.92705L39.2451 6.90983C39.379 7.32185 39.763 7.60081 40.1962 7.60081H44.3839C45.3527 7.60081 45.7554 8.84043 44.9717 9.40983L41.5838 11.8713C41.2333 12.126 41.0866 12.5773 41.2205 12.9894L42.5146 16.9721C42.8139 17.8934 41.7595 18.6596 40.9757 18.0902L37.5878 15.6287C37.2373 15.374 36.7627 15.374 36.4122 15.6287L33.0243 18.0902C32.2405 18.6596 31.1861 17.8934 31.4854 16.9721L32.7795 12.9894C32.9134 12.5773 32.7667 12.126 32.4162 11.8713L29.0283 9.40983C28.2446 8.84043 28.6473 7.60081 29.6161 7.60081H33.8038C34.237 7.60081 34.621 7.32185 34.7549 6.90983L36.0489 2.92705Z" fill="#F7C531"/>
<path d="M62.0489 2.92705C62.3483 2.00574 63.6517 2.00574 63.9511 2.92705L65.2451 6.90983C65.379 7.32185 65.763 7.60081 66.1962 7.60081H70.3839C71.3527 7.60081 71.7554 8.84043 70.9717 9.40983L67.5838 11.8713C67.2333 12.126 67.0866 12.5773 67.2205 12.9894L68.5146 16.9721C68.8139 17.8934 67.7595 18.6596 66.9757 18.0902L63.5878 15.6287C63.2373 15.374 62.7627 15.374 62.4122 15.6287L59.0243 18.0902C58.2405 18.6596 57.1861 17.8934 57.4854 16.9721L58.7795 12.9894C58.9134 12.5773 58.7667 12.126 58.4162 11.8713L55.0283 9.40983C54.2446 8.84043 54.6473 7.60081 55.6161 7.60081H59.8038C60.237 7.60081 60.621 7.32185 60.7549 6.90983L62.0489 2.92705Z" fill="#F7C531"/>
<path d="M88.0489 2.92705C88.3483 2.00574 89.6517 2.00574 89.9511 2.92705L91.2451 6.90983C91.379 7.32185 91.763 7.60081 92.1962 7.60081H96.3839C97.3527 7.60081 97.7554 8.84043 96.9717 9.40983L93.5838 11.8713C93.2333 12.126 93.0866 12.5773 93.2205 12.9894L94.5146 16.9721C94.8139 17.8934 93.7595 18.6596 92.9757 18.0902L89.5878 15.6287C89.2373 15.374 88.7627 15.374 88.4122 15.6287L85.0243 18.0902C84.2405 18.6596 83.1861 17.8934 83.4854 16.9721L84.7795 12.9894C84.9134 12.5773 84.7667 12.126 84.4162 11.8713L81.0283 9.40983C80.2446 8.84043 80.6473 7.60081 81.6161 7.60081H85.8038C86.237 7.60081 86.621 7.32185 86.7549 6.90983L88.0489 2.92705Z" fill="#F7C531"/>
<path d="M114.049 2.92705C114.348 2.00574 115.652 2.00574 115.951 2.92705L117.245 6.90983C117.379 7.32185 117.763 7.60081 118.196 7.60081H122.384C123.353 7.60081 123.755 8.84043 122.972 9.40983L119.584 11.8713C119.233 12.126 119.087 12.5773 119.22 12.9894L120.515 16.9721C120.814 17.8934 119.759 18.6596 118.976 18.0902L115.588 15.6287C115.237 15.374 114.763 15.374 114.412 15.6287L111.024 18.0902C110.241 18.6596 109.186 17.8934 109.485 16.9721L110.78 12.9894C110.913 12.5773 110.767 12.126 110.416 11.8713L107.028 9.40983C106.245 8.84043 106.647 7.60081 107.616 7.60081H111.804C112.237 7.60081 112.621 7.32185 112.755 6.90983L114.049 2.92705Z" fill="#F7C531"/>
</svg>
